<svg width="180" height="64" viewBox="0 0 180 64" fill="none" xmlns="http://www.w3.org/2000/svg">
<path d="M148.943 26.597C149.386 28.3007 149.62 30.0877 149.62 31.9293C149.62 43.6557 140.082 53.1941 128.356 53.1941C116.629 53.1941 107.091 43.6557 107.091 31.9293C107.091 20.2028 116.629 10.6645 128.356 10.6645C133.707 10.6645 138.6 12.6569 142.344 15.9326H155.976C150.445 6.41345 140.137 0 128.359 0C112.571 0 99.4229 11.5211 96.8787 26.597H83.1342C80.5868 11.5211 67.439 0 51.6509 0C39.8699 0 29.5647 6.41345 24.0304 15.9326H37.6626C41.4035 12.6569 46.2962 10.6645 51.6477 10.6645C63.3741 10.6645 72.9125 20.2028 72.9125 31.9293C72.9125 43.6557 63.3741 53.1941 51.6477 53.1941C39.9212 53.1941 30.3829 43.6557 30.3829 31.9293C30.3829 30.0877 30.6171 28.3007 31.0598 26.597H0V37.2615H20.1675C22.7118 52.3374 35.8595 63.8585 51.6477 63.8585C67.4358 63.8585 80.5836 52.3374 83.1278 37.2615H96.8722C99.4165 52.3374 112.564 63.8585 128.352 63.8585C144.141 63.8585 157.288 52.3374 159.832 37.2615H180V26.597H148.937H148.943Z" fill="#36A9E1"/>
</svg>
