<svg width="2500" height="2500" viewBox="0 0 2500 2500" fill="none" xmlns="http://www.w3.org/2000/svg">
<g clip-path="url(#clip0_323_52)">
<path fill-rule="evenodd" clip-rule="evenodd" d="M2416.81 906.69C2404.47 906.69 2392.63 911.594 2383.9 920.322C2375.17 929.051 2370.27 940.889 2370.27 953.232C2370.27 965.576 2375.17 977.414 2383.9 986.143C2392.63 994.871 2404.47 999.774 2416.81 999.774C2422.93 999.769 2428.98 998.557 2434.63 996.207C2440.27 993.858 2445.4 990.416 2449.72 986.081C2454.03 981.746 2457.44 976.602 2459.77 970.944C2462.09 965.286 2463.27 959.225 2463.24 953.109C2463.24 940.797 2458.35 928.99 2449.64 920.285C2440.93 911.581 2429.12 906.69 2416.81 906.69ZM2416.81 994.172C2411.42 994.175 2406.09 993.114 2401.11 991.05C2396.14 988.986 2391.62 985.96 2387.81 982.144C2384.01 978.329 2381 973.8 2378.95 968.817C2376.9 963.835 2375.86 958.496 2375.88 953.109C2375.88 947.741 2376.95 942.427 2379.01 937.471C2381.07 932.514 2384.09 928.012 2387.89 924.223C2391.69 920.433 2396.2 917.43 2401.16 915.385C2406.13 913.341 2411.44 912.294 2416.81 912.306C2427.63 912.306 2438.01 916.605 2445.66 924.257C2453.32 931.909 2457.61 942.288 2457.61 953.109C2457.64 958.487 2456.61 963.818 2454.57 968.795C2452.53 973.773 2449.53 978.299 2445.74 982.114C2441.95 985.929 2437.44 988.958 2432.48 991.027C2427.51 993.096 2422.19 994.165 2416.81 994.172Z" fill="black"/>
<path fill-rule="evenodd" clip-rule="evenodd" d="M2440.73 940.931C2440.73 936.547 2438.78 931.917 2434.88 929.725C2430.97 927.416 2426.59 927.17 2422.18 927.17H2399.54V979.191H2405.87V955.184H2417.56L2432.41 979.191H2439.99L2424.26 955.184C2433.53 954.938 2440.73 951.164 2440.73 940.931ZM2415.62 950.191H2405.87V931.8H2420.73C2427.19 931.8 2434.26 932.773 2434.26 940.814C2434.27 951.41 2422.91 950.191 2415.62 950.191ZM858.534 1720.76L555.236 1572.66C548.569 1569.21 545.132 1560.39 545.262 1554.62L546.066 1472.86C546.183 1467.1 547.324 1461.19 554.885 1455.77C587.31 1435.09 687.722 1379.52 791.454 1228.12C929.608 1026.48 791.454 857.068 575.533 903.189C383.762 944.147 188.529 1047.98 103.849 1104.44C28.3779 1154.75 38.8574 1215.54 36.7693 1270.05C40.9585 1293.1 49.35 1291.01 68.221 1267.95C208.671 1137.98 422.503 1039.45 462.333 1022.68C502.163 1005.91 596.505 949.309 707.617 974.458C814.346 998.633 788.406 1143.74 755.826 1205.06C720.185 1272.14 618.515 1369.62 572.395 1393.73C554.872 1402.89 548.297 1393.73 548.297 1379.05L555.638 1063.55C555.638 1042.59 546.196 1033.15 525.237 1040.49L491.697 1057.26C468.636 1070.89 469.687 1076.13 467.586 1092.9L462.502 1456.62C462.333 1464.47 458.676 1470.77 454.357 1472.63L344.944 1534.17C319.796 1546.75 326.073 1565.62 344.944 1571.91L432.996 1613.83C453.968 1622.21 460.258 1628.5 460.258 1649.46L457.106 1825.56C535.729 1809.84 540.956 1772.1 543.057 1746.94V1693.48C545.145 1680.89 552.486 1676.71 562.966 1678.81L818.716 1802.49C841.777 1812.98 854.357 1808.76 871.127 1779.44C887.884 1750.11 889.985 1735.45 858.534 1720.76ZM1305.48 1276.46C1269.95 1296.98 1253.5 1335.38 1267.51 1359.62C1281.49 1383.87 1323.77 1387.95 1359.34 1367.4C1394.9 1346.87 1410.28 1309.52 1396.27 1285.28C1382.29 1261.04 1341.05 1255.91 1305.48 1276.46Z" fill="black"/>
<path fill-rule="evenodd" clip-rule="evenodd" d="M1174.35 1302.55C1164.68 1314.33 1146.05 1350.26 1135.57 1372.27C1125.09 1394.26 1103.08 1444.05 1081.07 1444.05C1057.8 1444.05 1054.86 1386.42 1054.86 1365.44C1054.86 1344.47 1042.28 1341.33 1035.99 1342.38C1029.7 1343.43 1011.88 1349.71 1006.64 1371.73C1001.4 1393.74 973.096 1489.14 941.644 1489.14C921.735 1489.14 907.054 1431.49 906.016 1413.67C904.965 1395.86 896.574 1381.18 878.753 1381.18C866.173 1381.18 850.453 1387.47 844.163 1394.81C837.873 1402.15 836.835 1413.67 803.282 1406.34C772.881 1405.29 743.531 1421.02 707.903 1480.76C686.451 1516.72 669.019 1583.75 701.612 1610.73C732.014 1635.88 785.462 1590.81 801.194 1571.94C816.914 1553.08 830.545 1539.45 836.835 1528.98C843.113 1518.49 849.416 1519.54 852.555 1530.02C855.693 1540.51 873.514 1581.38 896.587 1580.34C919.647 1579.29 948.998 1561.47 983.588 1500.67C989.878 1488.09 999.307 1489.14 1001.41 1499.62C1003.51 1510.11 1017.13 1544.7 1040.19 1544.7C1062.2 1544.7 1086.68 1509.73 1098.89 1489.15C1107.27 1475 1119.85 1481.82 1119.85 1495.44C1119.85 1509.06 1113.56 1830.85 1113.56 1830.85C1113.56 1845.52 1119.32 1849.71 1129.8 1849.71H1175.4C1183.78 1849.71 1191.12 1842.38 1191.12 1830.85L1200.55 1309.38C1200.56 1296.78 1186.41 1287.88 1174.35 1302.55ZM817.977 1507.99C808.535 1523.73 783.387 1565.65 761.377 1558.32C749.847 1552.03 765.216 1510.1 772.907 1495.43C784.437 1473.42 818.237 1438.36 833.696 1447.21C848.378 1455.58 827.406 1492.28 817.977 1507.99ZM2415.06 1186.5C2410.88 1190.17 2404.06 1196.46 2388.86 1189.64C2362.65 1179.16 2360.56 1129.9 2346.94 1084.82C2334.69 1044.33 2305.19 1046.87 2294.53 1065.43L2262.56 1116.79C2256.79 1127.27 2244.22 1151.38 2231.63 1151.38C2216.96 1151.38 2223.52 1130.41 2224.31 1109.45C2224.82 1095.3 2215.91 1077.49 2201.24 1077.49C2184.47 1077.49 2166.66 1103.16 2153.03 1132.52C2143.51 1153.05 2118.96 1231.57 2088.03 1231.57C2068.12 1231.57 2066.02 1173.92 2064.98 1156.1C2063.94 1138.28 2057.64 1116.27 2039.83 1116.27C2027.77 1116.27 2019.92 1122.55 2013.62 1129.89C2007.34 1137.23 2006.31 1143.51 1984.28 1140.37C1953.88 1139.32 1903.57 1167.63 1867.93 1227.37C1846.48 1263.33 1820.66 1338.75 1853.26 1365.73C1883.66 1390.88 1938.15 1332.18 1953.88 1313.32C1969.59 1294.45 1983.22 1280.82 1989.52 1270.35C1995.8 1259.86 2002.09 1260.91 2005.23 1271.4C2008.37 1281.88 2026.2 1322.76 2049.26 1321.71C2072.34 1320.66 2091.18 1315.42 2125.78 1254.62C2132.06 1242.05 2143.59 1240.48 2145.69 1250.96C2147.79 1261.44 2149.89 1289.22 2171.9 1289.22C2209.62 1289.22 2252.38 1197.41 2263.09 1176.01C2272.52 1157.14 2287.71 1162.38 2292.96 1176.53C2300.46 1196.78 2307.1 1261.96 2347.98 1261.96C2388.86 1261.96 2416.63 1218.46 2425.01 1204.83C2434.46 1191.22 2429.55 1173.83 2415.06 1186.5ZM1970.64 1249.39C1961.21 1265.11 1940.24 1299.7 1918.23 1292.36C1906.7 1286.07 1921.02 1255.68 1928.72 1241C1940.25 1218.99 1974.04 1183.43 1989.52 1192.26C2004.18 1200.65 1980.07 1233.66 1970.64 1249.39ZM1768.14 1194.45C1768.14 1194.45 1679.05 1129.46 1653.89 1100.12C1636.99 1080.41 1648.65 1065.53 1659.13 1057.15C1722.01 1015.22 1820.54 950.23 1859.33 849.61C1896.7 752.623 1838.36 668.28 1796.43 654.649C1738.97 635.985 1617.19 673.52 1556.38 786.72C1517.02 860.038 1498.76 884.201 1493.51 1083.35C1492.5 1121.07 1491.41 1164.06 1491.41 1211.23C1491.41 1258.4 1486.17 1386.27 1480.91 1410.37C1461.01 1466.97 1520.76 1433.43 1547.99 1411.43C1575.26 1389.41 1573.14 1356.4 1573.14 1342.25C1573.14 1324.42 1574.21 1009.98 1583.63 939.75C1589.51 896.068 1596.23 815.02 1642.32 744.789C1688.46 674.557 1735.61 702.87 1748.21 714.388C1760.78 725.918 1778.61 755.268 1769.15 815.02C1754.51 907.741 1647.56 1008.93 1620.3 1040.37C1593.06 1071.81 1599.35 1099.07 1615.09 1121.08C1626.25 1136.74 1653.87 1167.2 1682.17 1195.5C1710.47 1223.8 1707.31 1248.96 1703.14 1267.83C1688.44 1324.42 1535.41 1477.46 1535.41 1477.46C1502.91 1512.05 1536.45 1568.65 1547.98 1587.51C1559.54 1606.38 1574.19 1600.11 1583.62 1584.37C1621.36 1514.16 1783.82 1344.34 1783.82 1344.34C1831.05 1284.59 1811.11 1226.94 1768.14 1194.45Z" fill="black"/>
</g>
<defs>
<clipPath id="clip0_323_52">
<rect width="2500" height="2500" fill="white"/>
</clipPath>
</defs>
</svg>
