<svg width="2500" height="2500" viewBox="0 0 2500 2500" fill="none" xmlns="http://www.w3.org/2000/svg">
<g clip-path="url(#clip0_323_58)">
<path fill-rule="evenodd" clip-rule="evenodd" d="M151.668 1426.83H119.646C116.974 1426.83 110.295 1426.83 110.295 1422.82C110.295 1420.16 111.631 1418.81 115.638 1417.48C145.002 1408.13 151.668 1392.12 151.668 1369.45V1130.56C151.668 1109.2 144.989 1093.18 115.638 1082.51C111.631 1082.51 110.295 1079.84 110.295 1078.5C110.295 1073.17 116.974 1074.49 119.646 1074.49H383.879C443.929 1074.49 493.318 1122.53 493.318 1182.58C493.318 1242.65 443.929 1290.67 383.879 1290.67H250.42V1372.08C251.769 1393.43 258.436 1408.1 286.463 1417.45C290.471 1418.8 291.794 1420.14 291.794 1422.8C291.794 1426.8 285.127 1426.8 282.456 1426.8H151.668V1426.83ZM2121.46 1297.38H2184.19L2121.46 1190.61L2114.77 1179.92L2058.74 1297.38H2121.46ZM2121.46 1073.18H2164.17L2342.99 1388.15C2348.33 1396.13 2355 1404.16 2363.03 1408.14C2369.69 1413.48 2377.7 1414.83 2384.36 1417.49C2387.05 1418.84 2389.71 1420.18 2389.71 1422.84C2389.71 1426.84 2383.04 1426.84 2380.35 1426.84H2221.55C2218.89 1426.84 2210.87 1426.84 2210.87 1422.84C2210.87 1420.18 2213.55 1418.83 2216.23 1417.49C2224.24 1414.83 2229.55 1410.83 2232.21 1402.82C2234.9 1393.47 2232.21 1388.15 2225.55 1376.12C2216.48 1356.86 2207.14 1337.73 2197.53 1318.74H2048.06L2046.73 1321.4C2045.38 1326.74 2034.72 1345.42 2026.69 1365.44C2016.03 1386.79 2012.03 1392.12 2014.68 1402.81C2016.03 1410.81 2022.69 1414.82 2030.69 1417.48C2033.37 1418.83 2034.72 1420.16 2034.72 1422.82C2034.72 1426.83 2028.03 1426.83 2025.37 1426.83H1951.96C1949.3 1426.83 1942.61 1426.83 1942.61 1422.82C1942.61 1420.16 1943.96 1418.81 1947.95 1417.48C1954.65 1414.82 1962.62 1413.47 1969.3 1408.13C1977.31 1404.15 1984 1396.12 1989.32 1388.14L1998.67 1368.1L2100.09 1155.92L2085.4 1130.56C2072.08 1109.2 2058.72 1095.85 2044.04 1087.85C2037.37 1083.84 2030.69 1083.84 2024.02 1081.17C2020.02 1079.84 2018.68 1078.5 2020.01 1075.83C2020.01 1073.16 2022.67 1074.49 2024.02 1073.16H2121.46V1073.18ZM1722.42 1425.48H1727.77C1973.34 1425.48 1970.68 1074.51 1727.77 1074.51H1526.26C1522.25 1074.51 1515.59 1073.17 1515.59 1078.51C1515.59 1079.85 1518.25 1082.52 1520.91 1082.52C1550.28 1091.86 1556.96 1107.88 1558.28 1127.9V1372.12C1556.96 1393.47 1550.28 1408.14 1520.91 1417.49C1518.25 1418.84 1515.59 1420.18 1515.59 1422.84C1515.59 1426.84 1522.26 1426.84 1526.26 1426.84H1655.71V1425.49L1722.42 1425.48ZM1722.42 1099.86C1759.82 1099.86 1790.51 1130.56 1790.51 1167.91V1330.74C1790.51 1368.1 1759.82 1398.8 1722.42 1398.8H1655.69V1099.86H1722.42ZM1213.97 1297.38H1276.69L1213.97 1190.61L1207.3 1179.92L1151.26 1297.38H1213.97ZM1213.97 1073.18H1258.02L1436.84 1388.15C1440.85 1396.13 1447.53 1404.16 1455.53 1408.14C1462.2 1413.48 1470.23 1414.83 1478.23 1417.49C1480.89 1418.84 1483.55 1420.18 1483.55 1422.84C1483.55 1426.84 1475.54 1426.84 1472.89 1426.84H1314.1C1311.41 1426.84 1304.75 1426.84 1304.75 1422.84C1304.75 1420.18 1306.07 1418.83 1310.06 1417.49C1316.76 1414.83 1323.41 1410.83 1324.76 1402.82C1327.42 1393.47 1324.76 1388.15 1319.41 1376.12C1310.06 1356.11 1299.4 1337.42 1290.08 1318.74H1140.56L1139.24 1321.4C1137.9 1326.74 1128.55 1345.42 1119.21 1365.44C1109.87 1386.79 1104.54 1392.12 1107.22 1402.81C1109.89 1410.81 1115.22 1414.82 1123.23 1417.48C1125.89 1418.83 1128.56 1420.16 1128.56 1422.82C1128.56 1426.83 1121.9 1426.83 1117.9 1426.83H1045.82C1043.15 1426.83 1035.13 1426.83 1035.13 1422.82C1035.13 1420.16 1037.8 1418.81 1040.47 1417.48C1048.49 1414.82 1055.16 1413.47 1063.17 1408.13C1069.84 1404.15 1077.85 1396.12 1081.85 1388.14L1091.19 1368.1L1193.96 1155.92L1179.28 1130.56C1165.93 1109.2 1151.25 1095.85 1137.9 1087.85C1129.89 1083.84 1124.56 1083.84 1116.54 1081.17C1113.87 1079.84 1111.2 1078.5 1112.55 1075.83C1113.87 1073.16 1116.54 1074.49 1117.89 1073.16H1213.97V1073.18ZM773.569 1306.73C804.268 1317.39 841.634 1320.05 870.985 1310.74L987.103 1410.83L996.441 1418.83C997.79 1420.18 997.79 1421.49 997.79 1422.84C997.79 1426.84 991.111 1426.84 988.439 1426.84H865.667L773.582 1350.78L698.837 1290.71V1373.47C700.186 1393.48 708.188 1408.15 736.203 1417.5C738.875 1418.85 740.21 1420.19 740.21 1422.85C740.21 1426.86 733.531 1426.86 730.859 1426.86H569.373C565.378 1426.86 558.699 1426.86 558.699 1422.85C558.699 1420.19 561.37 1418.84 564.029 1417.5C596.064 1406.84 600.072 1390.83 601.395 1365.47V1134.56C600.059 1110.54 596.052 1093.18 564.029 1082.51C561.357 1082.51 558.699 1079.84 558.699 1078.5C558.699 1073.17 565.378 1074.49 569.373 1074.49H829.611C843.823 1074.43 857.906 1077.19 871.048 1082.6C884.19 1088.01 896.131 1095.97 906.181 1106.02C916.231 1116.07 924.192 1128.01 929.604 1141.15C935.016 1154.29 937.772 1168.37 937.714 1182.58C937.774 1196.8 935.019 1210.88 929.607 1224.02C924.196 1237.16 916.235 1249.1 906.185 1259.15C896.134 1269.2 884.193 1277.16 871.05 1282.57C857.908 1287.98 843.823 1290.73 829.611 1290.67H745.541C749.549 1298.68 758.887 1301.36 766.889 1305.37C769.561 1305.38 770.897 1306.73 773.569 1306.73ZM773.569 1265.36H784.243C818.937 1265.36 848.3 1227.98 848.3 1179.92C848.3 1133.22 818.937 1095.85 784.243 1095.85H698.824V1265.36H773.569ZM326.488 1095.87H250.42V1265.37H338.511C374.541 1265.37 402.569 1227.99 402.569 1179.94C402.569 1133.23 374.541 1095.87 338.511 1095.87H326.488Z" fill="black"/>
</g>
<defs>
<clipPath id="clip0_323_58">
<rect width="2500" height="2500" fill="white"/>
</clipPath>
</defs>
</svg>
