<svg width="2416" height="2500" viewBox="0 0 2416 2500" fill="none" xmlns="http://www.w3.org/2000/svg">
<path d="M498.805 1336.02V1446.44C459.074 1481.73 364.136 1502.73 293.452 1502.73C222.86 1502.73 27.4631 1458.57 27.4631 1251.04C27.4631 1043.52 213.448 998.808 288.475 998.808C363.593 998.808 443.597 1012.56 489.935 1043.52V1140.63C489.935 1152.75 473.373 1151.67 473.373 1140.63C472.287 1124.06 428.121 1024.78 317.707 1026.95C198.514 1029.4 117.966 1123.07 117.966 1246.61C117.966 1370.14 196.252 1476.21 314.449 1472.86C352.823 1471.78 392.825 1459.65 412.193 1443.54L412.645 1336.02C412.645 1305.16 393.911 1294.12 375.177 1294.12C362.959 1294.12 362.959 1276.47 375.177 1276.47H536.273C548.4 1276.47 548.4 1295.21 536.273 1294.12C517.629 1294.12 498.805 1305.16 498.805 1336.02ZM1584.94 1140.72C1584.94 1152.84 1572.81 1151.76 1572.81 1140.72C1571.63 1124.16 1527.56 1021.52 1417.14 1023.79C1297.95 1026.14 1217.31 1123.16 1217.31 1246.7C1217.31 1370.23 1294.6 1479.56 1412.71 1476.3C1530.81 1472.96 1587.11 1356.02 1591.54 1340.55C1595.98 1325.07 1603.67 1327.34 1603.67 1339.46V1429.97C1555.16 1465.26 1463.48 1502.82 1392.89 1502.82C1322.29 1502.82 1126.9 1458.66 1126.9 1251.13C1126.9 1043.52 1312.34 993.921 1387.37 993.921C1462.48 993.921 1538.6 1012.66 1585.03 1043.52L1584.94 1140.72ZM2375.3 1006.05C2392.95 1006.05 2392.95 1022.61 2375.3 1022.61C2356.48 1022.61 2337.74 1033.65 2337.74 1064.51V1432.05C2337.74 1462.91 2356.48 1473.95 2375.3 1473.95C2392.95 1473.95 2392.95 1496.03 2375.3 1496.03H2213.03C2195.38 1496.03 2195.38 1473.95 2213.03 1473.95C2231.85 1473.95 2250.59 1462.91 2250.59 1432.05V1064.51C2250.59 1033.56 2231.85 1022.61 2213.03 1022.61C2195.38 1022.61 2195.38 1006.05 2213.03 1006.05H2375.3ZM1084.9 1006.05C1102.55 1006.05 1102.55 1022.61 1084.9 1022.61C1066.17 1022.61 1047.44 1033.65 1047.44 1064.51L1045.26 1305.7C1045.26 1421.19 951.593 1506.08 836.02 1506.08C720.447 1506.08 630.215 1421.19 630.215 1305.7V1064.51C630.215 1033.56 611.391 1022.61 592.656 1022.61C575.008 1022.61 575.008 1006.05 592.656 1006.05H756.015C773.663 1006.05 773.663 1022.61 756.015 1022.61C737.19 1022.61 718.456 1033.65 718.456 1064.51L718.275 1333.85C718.275 1415.3 784.886 1481.37 866.339 1481.37C947.792 1481.37 1013.86 1398.74 1013.86 1317.38L1009.88 1064.51C1009.88 1033.56 991.143 1022.61 972.318 1022.61C954.76 1022.61 954.76 1006.05 972.318 1006.05H1084.9ZM2124.7 1140.72C2124.7 1152.84 2112.57 1151.76 2112.57 1140.72C2111.48 1124.16 2067.32 1021.52 1956.9 1023.79C1837.71 1026.14 1757.07 1123.16 1757.07 1246.7C1757.07 1370.23 1834.36 1479.56 1952.47 1476.3C2070.58 1473.05 2126.87 1356.02 2131.3 1340.55C2135.74 1325.07 2143.52 1327.34 2143.52 1339.46V1429.97C2094.92 1465.26 2003.33 1502.82 1932.65 1502.82C1862.06 1502.82 1666.66 1458.66 1666.66 1251.13C1666.66 1043.52 1852.1 993.921 1927.22 993.921C2002.25 993.921 2078.45 1012.66 2124.79 1043.52L2124.7 1140.72Z" fill="black"/>
</svg>
