<svg width="2500" height="2500" viewBox="0 0 2500 2500" fill="none" xmlns="http://www.w3.org/2000/svg">
<g clip-path="url(#clip0_323_45)">
<path fill-rule="evenodd" clip-rule="evenodd" d="M1960.8 1192.75H1631.16V1315.67H1960.8V1192.75Z" fill="black"/>
<path fill-rule="evenodd" clip-rule="evenodd" d="M2463.24 991.591H2342.74C2342.74 1070.69 2278.63 1134.8 2199.52 1134.8C2120.43 1134.8 2056.29 1070.69 2056.29 991.591L1767.92 990.89C1696.94 990.89 1638.65 1045.18 1632.3 1114.49L1967.07 1114.48C2002.21 1179.87 2064.11 1229.09 2138.16 1246.73V1508.41H2258.18L2258.2 1248.74C2375.62 1222.06 2463.24 1117.06 2463.24 991.591ZM1354.38 991.591H1186.76L957.687 1212.28L1264.98 1508.41H1433.99L1130.89 1208.09L1354.38 991.591Z" fill="black"/>
<path fill-rule="evenodd" clip-rule="evenodd" d="M1576.01 1385.51C1520.48 1385.51 1482.43 1348.86 1482.43 1293.32V991.59H1362.31L1361.59 1314.25C1361.59 1425.34 1446.08 1508.41 1557.15 1508.41H1960.81L1960.09 1385.51H1576.01ZM2344.23 1409.49C2319.38 1409.49 2298.36 1428.61 2298.36 1454.52C2298.36 1480.69 2319.38 1499.78 2344.23 1499.78C2368.82 1499.78 2389.86 1480.68 2389.86 1454.52C2389.86 1428.59 2368.84 1409.49 2344.23 1409.49ZM2344.23 1492.26C2323.56 1492.26 2307.43 1476.27 2307.43 1454.52C2307.43 1433.16 2323.56 1417.02 2344.23 1417.02C2364.65 1417.02 2380.76 1433.15 2380.76 1454.52C2380.76 1476.26 2364.65 1492.26 2344.23 1492.26Z" fill="black"/>
<path fill-rule="evenodd" clip-rule="evenodd" d="M2351.54 1457.75C2359.16 1456.8 2365.04 1452.73 2365.04 1443.43C2365.04 1433.16 2358.93 1428.61 2346.62 1428.61H2326.81V1480.69H2334.69V1458.11H2343.75L2357.51 1480.69H2366.33L2351.54 1457.75ZM2334.69 1451.36V1435.23H2345.43C2350.93 1435.23 2356.77 1436.43 2356.77 1442.87C2356.77 1450.88 2350.8 1451.36 2344.1 1451.36H2334.69ZM772.596 991.59C656.672 991.59 562.966 1075.76 529.439 1119.07C483.98 1039.73 398.47 986.286 300.484 986.286C154.846 986.286 36.7693 1104.36 36.7693 1250C36.7693 1395.64 154.846 1513.71 300.484 1513.71C423.359 1513.71 526.598 1429.68 555.884 1315.95C613.159 1138.56 732.091 1114.52 782.375 1114.52H834.06V1192.04H761.416C690.445 1192.04 632.159 1246.33 625.804 1315.65H834.06V1508.41H954.186V991.59H772.596ZM299.498 1393.21C220.408 1393.21 156.286 1329.1 156.286 1250C156.286 1170.91 220.408 1106.79 299.498 1106.79C378.6 1106.79 442.71 1170.91 442.71 1250C442.71 1329.1 378.587 1393.21 299.498 1393.21Z" fill="black"/>
</g>
<defs>
<clipPath id="clip0_323_45">
<rect width="2500" height="2500" fill="white"/>
</clipPath>
</defs>
</svg>
